<svg xmlns="http://www.w3.org/2000/svg" viewBox="0 0 24 24"><defs><style>.cls-1,.cls-2{fill:#0e1317;}.cls-1{fill-rule:evenodd;}</style></defs><title>ic-actions-close</title><g id="Layer-202" data-name="Layer"><path class="cls-1" d="M12,3a9,9,0,1,0,9,9A9,9,0,0,0,12,3ZM1,12A11,11,0,1,1,12,23,11,11,0,0,1,1,12Z"/><path class="cls-2" d="M7.12,16.71a1,1,0,0,1,0-1.42l8.49-8.48A1,1,0,0,1,17,8.22L8.54,16.71A1,1,0,0,1,7.12,16.71Z"/><path class="cls-2" d="M6.71,6.71a1,1,0,0,1,1.41,0l8.49,8.48a1,1,0,0,1-1.42,1.42L6.71,8.12A1,1,0,0,1,6.71,6.71Z"/></g></svg>