<svg xmlns="http://www.w3.org/2000/svg" viewBox="0 0 24 24"><defs><style>.cls-1{fill:#0e1317;fill-rule:evenodd;}</style></defs><title>ic-users-more</title><g id="Vrstva_438" data-name="Vrstva 438"><path class="cls-1" d="M9,5.75a3,3,0,1,1,3,3A3,3,0,0,1,9,5.75ZM8.54,9.36A10,10,0,0,0,2,18.75v1a1,1,0,0,0,2,0v-1a8,8,0,0,1,8-8A5,5,0,1,0,8.54,9.36ZM15.89,13a4,4,0,1,0,4,4A4,4,0,0,0,15.89,13Zm-6,4a6,6,0,1,1,6,6A6,6,0,0,1,9.89,17Zm3.45-1.14A1.14,1.14,0,1,0,14.48,17,1.14,1.14,0,0,0,13.34,15.86ZM14.75,17a1.14,1.14,0,1,1,1.14,1.14A1.14,1.14,0,0,1,14.75,17Zm3.69-1.14A1.14,1.14,0,1,0,19.59,17,1.14,1.14,0,0,0,18.44,15.86Z"/></g></svg>